<?xml version="1.0" encoding="utf-8"?>
<!-- Generator: Adobe Illustrator 22.1.0, SVG Export Plug-In . SVG Version: 6.00 Build 0)  -->
<svg version="1.1" id="圖層_1" xmlns="http://www.w3.org/2000/svg" xmlns:xlink="http://www.w3.org/1999/xlink" x="0px" y="0px"
	 viewBox="0 0 199 200" style="enable-background:new 0 0 199 200;" xml:space="preserve">
<g>
	<g>
		<path d="M51.1,72.4c1.2-5.5,5.2-11.2,11.4-11.2c6.2,0,10.7,5.7,12.4,11.2c1.4,4.6,8.6,2.7,7.2-2c-2.6-8.8-10-16.8-19.6-16.8
			c-9.5,0-16.6,7.9-18.6,16.8C42.8,75.1,50,77.1,51.1,72.4L51.1,72.4z"/>
	</g>
	<g>
		<path d="M124.1,72.4c1.2-5.5,5.2-11.2,11.4-11.2c6.2,0,10.7,5.7,12.4,11.2c1.4,4.6,8.6,2.7,7.2-2c-2.6-8.8-10-16.8-19.6-16.8
			c-9.5,0-16.6,7.9-18.6,16.8C115.8,75.1,123,77.1,124.1,72.4L124.1,72.4z"/>
	</g>
	<path d="M74.5,95.4h50c0,0,0.5,51-25,51C75,146.4,74.5,107.4,74.5,95.4z"/>
</g>
</svg>
