<?xml version="1.0" encoding="utf-8"?>
<!-- Generator: Adobe Illustrator 22.1.0, SVG Export Plug-In . SVG Version: 6.00 Build 0)  -->
<svg version="1.1" id="圖層_1" xmlns="http://www.w3.org/2000/svg" xmlns:xlink="http://www.w3.org/1999/xlink" x="0px" y="0px"
	 viewBox="0 0 199 200" style="enable-background:new 0 0 199 200;" xml:space="preserve">
<g>
	<path d="M123.7,142.4H75.2c0,0-0.5-49,24.3-49C123.2,93.4,123.7,130.8,123.7,142.4z"/>
	<g>
		<path d="M36.2,65c8,1.7,16,3.3,24,5c4.7,1,6.7-6.2,2-7.2c-8-1.7-16-3.3-24-5C33.5,56.8,31.5,64,36.2,65L36.2,65z"/>
	</g>
	<g>
		<path d="M60.8,63.1c-8,3-16.1,6.1-24.1,9.1c-4.5,1.7-2.5,8.9,2,7.2c8-3,16.1-6.1,24.1-9.1C67.3,68.6,65.3,61.4,60.8,63.1
			L60.8,63.1z"/>
	</g>
	<g>
		<g>
			<path d="M160.8,57.7c-8,1.7-16,3.3-24,5c-4.7,1-2.7,8.2,2,7.2c8-1.7,16-3.3,24-5C167.5,64,165.5,56.8,160.8,57.7L160.8,57.7z"/>
		</g>
		<g>
			<path d="M136.2,70.3c8,3,16.1,6.1,24.1,9.1c4.5,1.7,6.5-5.5,2-7.2c-8-3-16.1-6.1-24.1-9.1C133.7,61.4,131.7,68.6,136.2,70.3
				L136.2,70.3z"/>
		</g>
	</g>
</g>
</svg>
